<?xml version="1.0" standalone="no"?>
<!DOCTYPE svg PUBLIC "-//W3C//DTD SVG 20010904//EN"
 "http://www.w3.org/TR/2001/REC-SVG-20010904/DTD/svg10.dtd">
<svg version="1.0" xmlns="http://www.w3.org/2000/svg"
 width="500.000000pt" height="500.000000pt" viewBox="0 0 500.000000 500.000000"
 preserveAspectRatio="xMidYMid meet">
<metadata>
Created by potrace 1.14, written by Peter Selinger 2001-2017
</metadata>
<g transform="translate(0.000000,500.000000) scale(0.100000,-0.100000)"
fill="#000000" stroke="none">
<path d="M0 2500 l0 -2500 2500 0 2500 0 0 2500 0 2500 -2500 0 -2500 0 0
-2500z m3294 1530 c25 -27 46 -56 46 -65 0 -9 -21 -38 -46 -65 -63 -68 -85
-67 -153 4 -28 30 -51 60 -51 66 0 6 21 33 46 60 37 40 53 50 79 50 26 0 42
-10 79 -50z m-899 -448 c17 -8 116 -100 222 -205 l192 -190 -32 -40 c-38 -47
-103 -87 -142 -87 -41 0 -84 31 -154 110 -75 84 -103 100 -174 100 -71 0 -115
-29 -244 -162 -110 -114 -130 -153 -117 -226 6 -36 4 -35 -115 83 -66 65 -119
120 -118 121 130 135 478 481 494 491 51 34 127 36 188 5z m522 -41 c92 -93
131 -93 228 0 39 38 70 59 85 59 32 0 180 -147 180 -179 0 -15 -26 -50 -77
-102 -97 -100 -110 -102 -195 -21 -58 55 -62 57 -114 57 -44 0 -58 -4 -80 -26
-18 -19 -24 -33 -20 -47 4 -11 52 -62 108 -113 55 -51 127 -124 159 -161 51
-60 59 -74 59 -110 0 -39 -6 -47 -117 -159 -160 -163 -188 -166 -302 -38 -75
83 -121 109 -192 109 -75 0 -127 -29 -199 -110 -63 -71 -110 -97 -152 -85 -35
11 -256 234 -263 266 -10 46 19 90 132 202 105 103 112 107 153 107 41 0 48
-4 133 -91 104 -104 134 -123 198 -122 59 1 99 22 161 86 107 111 102 130 -71
263 -74 57 -87 82 -66 124 21 41 146 150 172 150 13 0 44 -23 80 -59z m-218
-805 c28 -15 101 -90 101 -104 0 -4 -71 -78 -158 -165 l-157 -157 -120 120
-120 120 58 0 c32 0 68 5 80 11 12 6 56 46 99 90 42 43 87 83 100 88 35 14 86
13 117 -3z m-1495 -818 c3 -24 11 -97 16 -162 6 -66 12 -121 14 -123 2 -2 9
61 15 139 17 200 12 188 70 188 l48 0 6 -62 c4 -35 10 -107 13 -161 8 -117 19
-108 28 23 4 52 9 119 13 148 l6 52 53 0 54 0 -5 -37 c-7 -52 -55 -494 -55
-510 0 -11 -16 -13 -67 -11 l-68 3 -12 119 c-7 65 -14 121 -16 123 -2 2 -7
-31 -11 -74 -4 -43 -9 -99 -13 -125 l-6 -48 -66 0 -67 0 -27 263 c-15 144 -28
270 -27 280 0 14 9 17 49 17 l50 0 5 -42z m666 -13 l0 -55 -55 0 -55 0 0 -55
0 -55 55 0 55 0 0 -50 0 -50 -55 0 -55 0 0 -65 0 -65 60 0 60 0 0 -55 0 -55
-115 0 -115 0 0 280 0 280 110 0 110 0 0 -55z m357 22 c26 -25 28 -34 28 -103
0 -66 -3 -78 -22 -93 l-22 -18 21 -20 c41 -41 42 -189 3 -250 -23 -34 -54 -43
-156 -43 l-89 0 0 281 0 281 105 -4 c99 -3 106 -5 132 -31z m608 3 c29 -28 45
-76 45 -142 l0 -48 -55 0 -55 0 0 44 c0 57 -8 76 -30 76 -27 0 -30 -19 -30
-180 0 -161 3 -180 30 -180 23 0 30 19 30 86 l0 54 55 0 55 0 0 -67 c-1 -131
-45 -180 -157 -171 -47 4 -61 10 -84 36 -35 39 -43 98 -37 286 4 155 17 197
69 224 39 21 134 11 164 -18z m404 -207 c12 -131 24 -257 28 -280 l5 -43 -50
0 c-54 0 -62 8 -62 61 0 26 -3 29 -34 29 -32 0 -34 -2 -40 -45 l-7 -45 -50 0
c-44 0 -49 2 -49 23 0 12 11 137 25 277 14 140 25 256 25 258 0 1 42 2 93 2
l94 0 22 -237z m314 215 c3 -13 14 -85 23 -161 10 -75 21 -134 25 -130 3 5 14
69 23 143 10 74 20 143 22 153 5 14 18 17 90 17 l84 0 0 -280 0 -280 -50 0
-50 0 0 192 c0 105 -2 189 -5 187 -2 -3 -16 -77 -30 -165 -38 -237 -29 -214
-84 -214 l-48 0 -21 123 c-50 291 -47 286 -50 70 l-2 -193 -50 0 -50 0 0 280
0 280 84 0 c79 0 84 -1 89 -22z m585 11 c49 -17 65 -52 70 -149 5 -128 -29
-179 -120 -180 l-38 0 0 -110 0 -110 -55 0 -55 0 0 280 0 280 84 0 c45 0 97
-5 114 -11z"/>
<path d="M2100 1810 c0 -58 1 -61 23 -58 20 3 22 9 22 58 0 49 -2 55 -22 58
-22 3 -23 0 -23 -58z"/>
<path d="M2100 1580 c0 -70 2 -80 18 -80 30 0 42 21 42 73 0 58 -14 87 -40 87
-18 0 -20 -7 -20 -80z"/>
<path d="M3118 1830 c-4 -19 -10 -83 -14 -142 l-6 -108 26 0 27 0 -7 78 c-17
194 -19 210 -26 172z"/>
<path d="M4050 1790 c0 -51 4 -70 13 -70 24 0 37 24 37 70 0 46 -13 70 -37 70
-9 0 -13 -19 -13 -70z"/>
</g>
</svg>
